<?xml version="1.0" encoding="utf-8"?><svg xmlns="http://www.w3.org/2000/svg" xmlns:xlink="http://www.w3.org/1999/xlink"><symbol viewBox="0 0 512.001 512.001" id="404" xmlns="http://www.w3.org/2000/svg"><path d="M24 80h464a8 8 0 018 8v384a8 8 0 01-8 8H24a8 8 0 01-8-8V88a8 8 0 018-8z" fill="#fff"/><g fill="#ee2c39"><path d="M181.52 280.641h-32c-8.88 0-10.64-7.2-5.84-13.2l37.439-45.119a9.76 9.76 0 018.001-3.84 6.881 6.881 0 016.721 8v40h4.96a7.118 7.118 0 015.975 8.105 7.117 7.117 0 01-5.975 5.975h-4.56V290a7.44 7.44 0 01-14.639 0v-9.36h-.082zM161.28 266.4h21.04v-25.52l-21.04 25.52z"/><path d="M249.28 297.2c-46.16 0-45.52-81.12 0-81.12 42.72-.079 43.28 81.12 0 81.12zm0-14.64c24 0 23.28-51.36 0-51.36-25.84 0-26.16 51.36-.08 51.36h.08zm79.92-1.919h-32c-8.88 0-10.64-7.2-5.84-13.2l37.44-45.119a9.76 9.76 0 018-3.84 6.881 6.881 0 016.721 8v40h5.28a7.118 7.118 0 015.975 8.105 7.117 7.117 0 01-5.975 5.975h-4.799V290a7.44 7.44 0 01-14.639 0v-9.36h-.163zM308.88 266.4h21.04v-25.52l-21.04 25.52z"/></g></symbol></svg>