<svg xmlns="http://www.w3.org/2000/svg" version="1.1" id="Layer_1" x="0px" y="0px" viewBox="0 0 512.001 512.001"
     style="enable-background:new 0 0 512.001 512.001;" xml:space="preserve">
<path style="fill:#FFFFFF;"
      d="M24,80h464c4.418,0,8,3.582,8,8v384c0,4.418-3.582,8-8,8H24c-4.418,0-8-3.582-8-8V88  C16,83.582,19.582,80,24,80z"/>
    <g>
	<path style="fill:#EE2C39;"
          d="M181.52,280.641h-32c-8.88,0-10.64-7.2-5.84-13.2l37.439-45.119c1.897-2.489,4.872-3.916,8.001-3.84   c3.799,0.038,6.849,3.148,6.812,6.948c-0.004,0.352-0.034,0.705-0.091,1.052v40h4.96c3.888,0.587,6.564,4.216,5.975,8.105   c-0.466,3.087-2.889,5.509-5.975,5.975h-4.56V290c-0.735,4.042-4.608,6.724-8.65,5.989c-3.049-0.555-5.435-2.94-5.989-5.989v-9.36   H181.52z M161.28,266.4h21.04v-25.52L161.28,266.4z"/>
        <path style="fill:#EE2C39;"
              d="M249.28,297.2c-46.16,0-45.52-81.12,0-81.12C292,216.001,292.56,297.2,249.28,297.2z M249.28,282.56   c24,0,23.28-51.36,0-51.36c-25.84,0-26.16,51.36-0.08,51.36H249.28z"/>
        <path style="fill:#EE2C39;"
              d="M329.2,280.641h-32c-8.88,0-10.64-7.2-5.84-13.2l37.44-45.119c1.897-2.489,4.872-3.916,8-3.84   c3.799,0.038,6.849,3.148,6.812,6.948c-0.004,0.352-0.034,0.705-0.091,1.052v40h5.28c3.888,0.587,6.564,4.216,5.975,8.105   c-0.466,3.087-2.889,5.509-5.975,5.975h-4.799V290c-0.735,4.042-4.608,6.724-8.65,5.989c-3.049-0.555-5.435-2.94-5.989-5.989v-9.36   H329.2z M308.88,266.4h21.04v-25.52L308.88,266.4z"/>
</g>
</svg>