<?xml version="1.0" encoding="UTF-8"?>
<svg width="78px" height="78px" viewBox="0 0 78 78" version="1.1" xmlns="http://www.w3.org/2000/svg" xmlns:xlink="http://www.w3.org/1999/xlink">
    <!-- Generator: sketchtool 61.2 (101010) - https://sketch.com -->
    <title>32F8BE2B-0CCB-46B8-AE22-97B582D5AFBE@3x</title>
    <desc>Created with sketchtool.</desc>
    <g id="Contact-Us" stroke="none" stroke-width="1" fill="none" fill-rule="evenodd">
        <g id="06_Contact-us" transform="translate(-576.000000, -299.000000)">
            <g id="Group-4" transform="translate(545.000000, 268.000000)">
                <g id="Bxs-Phone" transform="translate(32.000000, 32.000000)">
                    <circle id="Oval" stroke="#D6D6D6" stroke-width="2" cx="38" cy="38" r="38"></circle>
                    <g id="bxs-chat" transform="translate(21.000000, 20.000000)" fill="#323E8C">
                        <path d="M3.5,28 L5.25,28 L7,28 L7,35.14175 L15.92675,28 L17.5,28 L24.5,28 C26.43025,28 28,26.43025 28,24.5 L28,10.5 C28,8.56975 26.43025,7 24.5,7 L3.5,7 C1.56975,7 0,8.56975 0,10.5 L0,24.5 C0,26.43025 1.56975,28 3.5,28 Z" id="Path"></path>
                        <path d="M31.5,0 L29.75,0 L26.2465,0 L12.25,0 L10.5,0 C8.56975,0 7,1.56975 7,3.5 L12.25,3.5 L25.5255,3.5 L28,3.5 C29.93025,3.5 31.5,5.06975 31.5,7 L31.5,9.4745 L31.5,15.75 L31.5,21 C33.43025,21 35,19.43025 35,17.5 L35,15.75 L35,8.75 L35,5.25 L35,3.5 C35,1.56975 33.43025,0 31.5,0 Z" id="Path"></path>
                    </g>
                </g>
            </g>
        </g>
    </g>
</svg>